{
  "accessors": [
    {
      "bufferView": 2,
      "componentType": 5126,
      "count": 284,
      "max": [
        0.061594158411026,
        0.20290020108222961,
        1.0403048992156982
      ],
      "min": [
        -0.06159481406211853,
        -0.20289966464042664,
        -1.0403048992156982
      ],
      "type": "VEC3"
    },
    {
      "bufferView": 2,
      "byteOffset": 3408,
      "componentType": 5126,
      "count": 284,
      "max": [
        1.0,
        1.0,
        1.0
      ],
      "min": [
        -1.0,
        -1.0,
        -1.0
      ],
      "type": "VEC3"
    },
    {
      "bufferView": 1,
      "componentType": 5126,
      "count": 284,
      "max": [
        0.9962536096572876,
        0.9971103668212891
      ],
      "min": [
        0.38318514823913574,
        0.6590216159820557
      ],
      "type": "VEC2"
    },
    {
      "bufferView": 0,
      "componentType": 5125,
      "count": 804,
      "type": "SCALAR"
    },
    {
      "bufferView": 2,
      "byteOffset": 6816,
      "componentType": 5126,
      "count": 925,
      "max": [
        2.2596499919891357,
        3.113229990005493,
        1.3225899934768677
      ],
      "min": [
        -4.051239967346191,
        -0.18804000318050385,
        -1.3225899934768677
      ],
      "type": "VEC3"
    },
    {
      "bufferView": 2,
      "byteOffset": 17916,
      "componentType": 5126,
      "count": 925,
      "max": [
        0.9971137642860413,
        0.9999792575836182,
        0.9959566593170166
      ],
      "min": [
        -0.9999473690986633,
        -0.9997810125350952,
        -0.9959567785263062
      ],
      "type": "VEC3"
    },
    {
      "bufferView": 1,
      "byteOffset": 2272,
      "componentType": 5126,
      "count": 925,
      "max": [
        0.9774630069732666,
        1.000749945640564
      ],
      "min": [
        0.039827898144721985,
        0.008657409809529781
      ],
      "type": "VEC2"
    },
    {
      "bufferView": 0,
      "byteOffset": 3216,
      "componentType": 5125,
      "count": 4824,
      "type": "SCALAR"
    },
    {
      "bufferView": 3,
      "componentType": 5126,
      "count": 62,
      "max": [
        8.333333015441895
      ],
      "min": [
        0.0416666679084301
      ],
      "type": "SCALAR"
    },
    {
      "bufferView": 4,
      "componentType": 5126,
      "count": 62,
      "max": [
        -3.5866072177886963,
        5.460610389709473,
        0.24719516932964325
      ],
      "min": [
        -3.5866072177886963,
        2.2781684398651123,
        0.24719516932964325
      ],
      "type": "VEC3"
    },
    {
      "bufferView": 3,
      "byteOffset": 248,
      "componentType": 5126,
      "count": 69,
      "max": [
        8.333333015441895
      ],
      "min": [
        0.0416666679084301
      ],
      "type": "SCALAR"
    },
    {
      "bufferView": 4,
      "byteOffset": 744,
      "componentType": 5126,
      "count": 69,
      "max": [
        1.575060486793518,
        1.575060486793518,
        1.575060486793518
      ],
      "min": [
        9.999999960041972e-13,
        9.999999960041972e-13,
        9.999999960041972e-13
      ],
      "type": "VEC3"
    },
    {
      "bufferView": 3,
      "byteOffset": 524,
      "componentType": 5126,
      "count": 31,
      "max": [
        8.333333015441895
      ],
      "min": [
        0.0416666679084301
      ],
      "type": "SCALAR"
    },
    {
      "bufferView": 5,
      "componentType": 5126,
      "count": 31,
      "max": [
        0.13507208228111267,
        0.0,
        0.0,
        1.0
      ],
      "min": [
        -0.1526324599981308,
        0.0,
        0.0,
        0.9882830381393433
      ],
      "type": "VEC4"
    }
  ],
  "animations": [
    {
      "channels": [
        {
          "sampler": 0,
          "target": {
            "node": 5,
            "path": "translation"
          }
        },
        {
          "sampler": 1,
          "target": {
            "node": 5,
            "path": "scale"
          }
        },
        {
          "sampler": 2,
          "target": {
            "node": 5,
            "path": "rotation"
          }
        }
      ],
      "name": "Take 001",
      "samplers": [
        {
          "input": 8,
          "interpolation": "LINEAR",
          "output": 9
        },
        {
          "input": 10,
          "interpolation": "LINEAR",
          "output": 11
        },
        {
          "input": 12,
          "interpolation": "LINEAR",
          "output": 13
        }
      ]
    }
  ],
  "asset": {
    "extras": {
      "author": "Mike Nixon (https://sketchfab.com/MichaelNixon)",
      "license": "CC-BY-4.0 (http://creativecommons.org/licenses/by/4.0/)",
      "source": "https://sketchfab.com/3d-models/deal-with-it-doge-2be6ce1a55764adcbebe8fe8184254d6",
      "title": "Deal With It Doge"
    },
    "generator": "Sketchfab-12.66.0",
    "version": "2.0"
  },
  "bufferViews": [
    {
      "buffer": 0,
      "byteLength": 22512,
      "name": "floatBufferViews",
      "target": 34963
    },
    {
      "buffer": 0,
      "byteLength": 9672,
      "byteOffset": 22512,
      "byteStride": 8,
      "name": "floatBufferViews",
      "target": 34962
    },
    {
      "buffer": 0,
      "byteLength": 29016,
      "byteOffset": 32184,
      "byteStride": 12,
      "name": "floatBufferViews",
      "target": 34962
    },
    {
      "buffer": 0,
      "byteLength": 648,
      "byteOffset": 61200,
      "name": "floatBufferViews"
    },
    {
      "buffer": 0,
      "byteLength": 1572,
      "byteOffset": 61848,
      "byteStride": 12,
      "name": "floatBufferViews"
    },
    {
      "buffer": 0,
      "byteLength": 496,
      "byteOffset": 63420,
      "byteStride": 16,
      "name": "floatBufferViews"
    }
  ],
  "buffers": [
    {
      "byteLength": 63916,
      "uri": "scene.bin"
    }
  ],
  "images": [
    {
      "uri": "textures/Deal_With_It_Mat_baseColor.png"
    }
  ],
  "materials": [
    {
      "doubleSided": true,
      "emissiveFactor": [
        1.0,
        1.0,
        1.0
      ],
      "emissiveTexture": {
        "index": 0
      },
      "name": "Deal_With_It_Mat",
      "pbrMetallicRoughness": {
        "baseColorTexture": {
          "index": 0
        },
        "metallicFactor": 0.0,
        "roughnessFactor": 0.8885289634
      }
    }
  ],
  "meshes": [
    {
      "name": "Glasses_Deal_With_It_Mat_0",
      "primitives": [
        {
          "attributes": {
            "NORMAL": 1,
            "POSITION": 0,
            "TEXCOORD_0": 2
          },
          "indices": 3,
          "material": 0,
          "mode": 4
        }
      ]
    },
    {
      "name": "DealWithItDoge_polySurface75_polySurface75_Deal_With_It_Mat_0",
      "primitives": [
        {
          "attributes": {
            "NORMAL": 5,
            "POSITION": 4,
            "TEXCOORD_0": 6
          },
          "indices": 7,
          "material": 0,
          "mode": 4
        }
      ]
    }
  ],
  "nodes": [
    {
      "children": [
        1
      ],
      "matrix": [
        1.0,
        0.0,
        0.0,
        0.0,
        0.0,
        2.220446049250313e-16,
        -1.0,
        0.0,
        0.0,
        1.0,
        2.220446049250313e-16,
        0.0,
        0.0,
        0.0,
        0.0,
        1.0
      ],
      "name": "Sketchfab_model"
    },
    {
      "children": [
        2
      ],
      "matrix": [
        1.0,
        0.0,
        0.0,
        0.0,
        0.0,
        0.0,
        1.0,
        0.0,
        0.0,
        -1.0,
        0.0,
        0.0,
        0.0,
        0.0,
        0.0,
        1.0
      ],
      "name": "493915c69f8c4c18a92e8ae40318e5b5.fbx"
    },
    {
      "children": [
        3
      ],
      "name": "Object_2"
    },
    {
      "children": [
        4,
        7
      ],
      "name": "RootNode"
    },
    {
      "children": [
        5
      ],
      "name": "Doge"
    },
    {
      "children": [
        6
      ],
      "name": "Glasses",
      "scale": [
        1.1921625137329102,
        1.17924165725708,
        1.1877557039260864
      ],
      "translation": [
        -3.5866072177886963,
        5.112399578094482,
        0.24719516932964325
      ]
    },
    {
      "mesh": 0,
      "name": "Glasses_Deal_With_It_Mat_0"
    },
    {
      "children": [
        8
      ],
      "name": "DealWithItDoge_polySurface75_polySurface75"
    },
    {
      "mesh": 1,
      "name": "DealWithItDoge_polySurface75_polySurface75_Deal_With_It_Mat_0"
    }
  ],
  "samplers": [
    {
      "magFilter": 9729,
      "minFilter": 9987,
      "wrapS": 10497,
      "wrapT": 10497
    }
  ],
  "scene": 0,
  "scenes": [
    {
      "name": "Sketchfab_Scene",
      "nodes": [
        0
      ]
    }
  ],
  "textures": [
    {
      "sampler": 0,
      "source": 0
    }
  ]
}
